<?xml version="1.0" encoding="UTF-8" standalone="no"?>
<!DOCTYPE svg PUBLIC "-//W3C//DTD SVG 1.0//EN" "http://www.w3.org/TR/2001/PR-SVG-20010719/DTD/svg10.dtd">
<svg width="25cm" height="11cm" viewBox="230 171 491 207" xmlns="http://www.w3.org/2000/svg" xmlns:xlink="http://www.w3.org/1999/xlink">
  <g>
    <path style="fill: #0096d4" d="M 230.43 283.428 L 230.43,378.002 L 604.553,378.002 L 604.553,283.428 L 230.43,283.428z"/>
    <path style="fill: none; fill-opacity:0; stroke-width: 0.02; stroke: #aae6ff" d="M 230.43 283.428 L 230.43,378.002 L 604.553,378.002 L 604.553,283.428 L 230.43,283.428"/>
    <path style="fill: #005a80" d="M 604.553 283.428 L 720.407,172 L 720.407,266.574 L 604.553,378.002 L 604.553,283.428z"/>
    <path style="fill: none; fill-opacity:0; stroke-width: 0.02; stroke: #aae6ff" d="M 604.553 283.428 L 720.407,172 L 720.407,266.574 L 604.553,378.002 L 604.553,283.428"/>
    <path style="fill: #00b4ff" d="M 604.553 283.428 L 720.407,172 L 346.029,172 L 230.43,283.428 L 604.553,283.428z"/>
    <path style="fill: none; fill-opacity:0; stroke-width: 0.02; stroke: #aae6ff" d="M 604.553 283.428 L 720.407,172 L 346.029,172 L 230.43,283.428 L 604.553,283.428"/>
    <path style="fill: #000000" d="M 465.033 229.459 L 451.499,242.739 L 546.668,242.739 L 533.133,259.764 L 611.363,239.419 L 570.588,222.649 L 560.288,229.459 L 465.033,229.459z"/>
    <path style="fill: #000000" d="M 512.703 185.535 L 499.083,198.985 L 594.338,198.985 L 577.313,215.839 L 658.947,192.345 L 614.768,175.32 L 608.128,185.535 L 512.703,185.535z"/>
    <path style="fill: #000000" d="M 430.984 266.574 L 444.859,252.954 L 346.029,252.954 L 363.054,236.099 L 284.654,256.273 L 325.599,273.298 L 332.494,266.574 L 430.984,266.574z"/>
    <path style="fill: #000000" d="M 475.333 219.074 L 488.953,205.88 L 393.699,205.88 L 410.809,188.855 L 329.004,212.434 L 373.184,229.459 L 379.994,219.074 L 475.333,219.074z"/>
    <path style="fill: #ffffff" d="M 468.438 232.609 L 454.904,246.144 L 550.158,246.144 L 536.538,263.083 L 614.768,242.739 L 573.823,225.969 L 563.778,232.609 L 468.438,232.609z"/>
    <path style="fill: #ffffff" d="M 516.108 188.855 L 502.488,202.304 L 597.743,202.304 L 580.718,219.074 L 662.438,195.494 L 618.258,178.725 L 611.363,188.855 L 516.108,188.855z"/>
    <path style="fill: #ffffff" d="M 434.388 269.893 L 448.008,256.273 L 349.519,256.273 L 366.289,239.419 L 288.144,259.764 L 329.004,276.618 L 335.729,269.893 L 434.388,269.893z"/>
    <path style="fill: #ffffff" d="M 478.568 222.649 L 492.358,209.029 L 396.934,209.029 L 414.044,192.345 L 332.494,215.839 L 376.674,232.609 L 383.314,222.649 L 478.568,222.649z"/>
  </g>
</svg>
